<?xml version="1.0" encoding="utf-8"?>
<!-- Generator: Adobe Illustrator 28.3.0, SVG Export Plug-In . SVG Version: 6.00 Build 0)  -->
<svg version="1.1" id="Layer_1" xmlns="http://www.w3.org/2000/svg" xmlns:xlink="http://www.w3.org/1999/xlink" x="0px" y="0px"
	 viewBox="0 0 24 24" style="enable-background:new 0 0 24 24;" xml:space="preserve">
<style type="text/css">
	.st0{fill:#333333;}
</style>
<path class="st0" d="M2,20h20v2H2V20z M4,12h2v7H4V12z M9,12h2v7H9V12z M13,12h2v7h-2V12z M18,12h2v7h-2V12z M2,7l10-5l10,5v4H2V7z
	 M4,8.23607V9h16V8.23607l-8-4L4,8.23607z M12,8c-0.5523,0-1-0.44772-1-1s0.4477-1,1-1s1,0.44772,1,1S12.5523,8,12,8z"/>
</svg>
