<?xml version="1.0" encoding="utf-8"?>
<!-- Generator: Adobe Illustrator 28.3.0, SVG Export Plug-In . SVG Version: 6.00 Build 0)  -->
<svg version="1.1" id="Layer_1" xmlns="http://www.w3.org/2000/svg" xmlns:xlink="http://www.w3.org/1999/xlink" x="0px" y="0px"
	 viewBox="0 0 24 24" style="enable-background:new 0 0 24 24;" xml:space="preserve">
<style type="text/css">
	.st0{fill:#333333;}
</style>
<path class="st0" d="M14.0049,2.00275c4.4183,0,8,3.58172,8,7.99995c0,3.2447-1.9316,6.0381-4.7076,7.2933
	c-1.2551,2.7757-4.0483,4.7067-7.2924,4.7067c-4.4183,0-8.00002-3.5817-8.00002-8c0-3.2441,1.93102-6.03722,4.70634-7.29264
	C7.96681,3.93431,10.7603,2.00275,14.0049,2.00275z M10.0049,8.00275c-3.31373,0-6.00002,2.68625-6.00002,5.99995
	c0,3.3138,2.68629,6,6.00002,6c3.3137,0,6-2.6862,6-6C16.0049,10.689,13.3186,8.00275,10.0049,8.00275z M11.0049,9.00275v0.99995h2
	v2H9.00488c-0.27614,0-0.5,0.2239-0.5,0.5c0,0.2455,0.17688,0.4497,0.41013,0.492l0.08987,0.008h2.00002
	c1.3807,0,2.5,1.1193,2.5,2.5c0,1.3808-1.1193,2.5-2.5,2.5v1H9.00488v-1h-2v-2h4.00002c0.2761,0,0.5-0.2238,0.5-0.5
	c0-0.2454-0.1769-0.4496-0.4101-0.4919l-0.0899-0.0081H9.00488c-1.38071,0-2.5-1.1192-2.5-2.5c0-1.3807,1.11929-2.5,2.5-2.5V9.00275
	H11.0049z M14.0049,4.00275c-1.7835,0-3.3853,0.77816-4.48426,2.01348c0.16069-0.00865,0.3219-0.01348,0.48426-0.01348
	c4.4183,0,8,3.58172,8,7.99995c0,0.1627-0.0049,0.3243-0.0144,0.4845c1.236-1.0987,2.0144-2.7007,2.0144-4.4845
	C20.0049,6.68904,17.3186,4.00275,14.0049,4.00275z"/>
</svg>
