<?xml version="1.0" encoding="utf-8"?>
<!-- Generator: Adobe Illustrator 28.3.0, SVG Export Plug-In . SVG Version: 6.00 Build 0)  -->
<svg version="1.1" id="Layer_1" xmlns="http://www.w3.org/2000/svg" xmlns:xlink="http://www.w3.org/1999/xlink" x="0px" y="0px"
	 viewBox="0 0 24 24" style="enable-background:new 0 0 24 24;" xml:space="preserve">
<style type="text/css">
	.st0{fill:none;stroke:#2E94B9;stroke-width:1.5;stroke-linecap:round;stroke-linejoin:round;}
</style>
<path class="st0" d="M12,18v-5.25 M12,12.75c0.50596,0.00039,1.00995-0.06311,1.5-0.189 M12,12.75
	c-0.50596,0.00039-1.00995-0.06311-1.5-0.189 M14.25,20.039c-1.48672,0.28233-3.01328,0.28233-4.5,0 M13.5,22.422
	c-0.99727,0.10441-2.00273,0.10441-3,0 M14.25,18v-0.192c0-0.983,0.658-1.823,1.508-2.316
	c3.58448-2.07576,4.80754-6.6643,2.73178-10.24878S11.82548,0.43569,8.241,2.51145s-4.80754,6.6643-2.73178,10.24878
	C6.16564,13.89374,7.10748,14.83558,8.241,15.492c0.85,0.493,1.509,1.333,1.509,2.316V18"/>
</svg>
