<?xml version="1.0" encoding="utf-8"?>
<!-- Generator: Adobe Illustrator 28.3.0, SVG Export Plug-In . SVG Version: 6.00 Build 0)  -->
<svg version="1.1" id="Layer_1" xmlns="http://www.w3.org/2000/svg" xmlns:xlink="http://www.w3.org/1999/xlink" x="0px" y="0px"
	 viewBox="0 0 160 160" style="enable-background:new 0 0 160 160;" xml:space="preserve">
<style type="text/css">
	.st0{enable-background:new    ;}
	.st1{fill:#FBFBFB;stroke:#0E1131;stroke-miterlimit:10;}
</style>
<g class="st0">
	<path class="st1" d="M31.65332,52.94678c8.13965,0,14.59229,2.19922,19.35791,6.59668
		c5.03906,4.60352,7.55859,10.55078,7.55859,17.8418c0,4.46729-1.2085,8.63721-3.625,12.51025
		c-4.72021,7.56543-12.46143,11.34766-23.22314,11.34766c-8.07178,0-14.49023-2.19824-19.25537-6.59668
		C9.9126,92.2998,7.97412,89.48535,6.65186,86.2041c-1.16309-2.89355-1.74414-5.93555-1.74414-9.12646
		c0-4.6709,1.19678-8.94336,3.59082-12.81738C13.08154,56.85498,20.7998,53.0835,31.65332,52.94678z M31.6875,60.87646
		c-4.44824,0-8.15527,1.32031-11.12012,3.96094c-3.51318,3.11816-5.26904,7.2041-5.26904,12.25684
		c0,5.0542,1.75586,9.14014,5.26904,12.2583c2.96484,2.64062,6.69482,3.96094,11.18848,3.96094s8.21143-1.32031,11.1543-3.96094
		c1.75586-1.57031,3.10205-3.49414,4.0376-5.77051c0.8208-2.02539,1.23145-4.11963,1.23145-6.28271
		c0-5.28027-1.75635-9.43457-5.26904-12.46191C39.92139,62.24268,36.18115,60.92236,31.6875,60.87646z"/>
	<path class="st1" d="M94.0332,90.85254h-17.604l-1.9834,4.16992c-0.47852,1.00293-0.71777,1.78906-0.71777,2.3584
		c0,1.09375,0.72852,1.78906,2.18848,2.08496v0.95703H61.85107v-0.95703c0.86572-0.13672,1.50928-0.39844,1.93115-0.78613
		c0.42139-0.38672,0.91699-1.15039,1.48682-2.29004l13.97949-28.30127c0.52344-1.07031,0.78564-2.00488,0.78564-2.80273
		c0-0.93359-0.63818-1.66309-1.91357-2.1875v-0.95703h14.86768v0.95703c-1.25391,0.50195-1.87988,1.27637-1.87988,2.32422
		c0,0.75195,0.28418,1.6748,0.85449,2.76855l14.49219,27.44678c0.79688,1.49121,1.42383,2.45703,1.87988,2.89648
		c0.45508,0.44043,1.15039,0.75098,2.08496,0.93164v0.95703H94.7832v-0.95703c1.47852-0.24902,2.21875-0.94141,2.21875-2.07715
		c0-0.70312-0.28516-1.57715-0.85449-2.62109L94.0332,90.85254z M91.27734,85.48633L85.0088,73.17334l-5.9673,12.31299H91.27734z"/>
	<path class="st1" d="M130.38867,82.99219l-5.44238,4.4082v9.50977c0,0.7041,0.15918,1.24316,0.47852,1.61816
		c0.31836,0.375,0.88867,0.6875,1.70898,0.9375v0.95703h-13.53516v-0.95703c0.79688-0.20508,1.36133-0.50098,1.69141-0.88867
		c0.33008-0.38672,0.49609-0.93359,0.49609-1.64062V65.62744c0-0.70605-0.16016-1.24121-0.47852-1.60645
		c-0.31934-0.36426-0.88867-0.67188-1.70898-0.92285v-0.95703h13.53516v0.95703c-0.82031,0.22852-1.39062,0.53027-1.70898,0.90625
		c-0.31934,0.37598-0.47852,0.91797-0.47852,1.62402v12.5498l14.4082-11.49121c1.07031-0.84277,1.60547-1.58301,1.60547-2.22168
		c0-0.68359-0.66113-1.13867-1.98145-1.36719v-0.95703h17.20801v0.95703c-0.86621,0.13574-1.58984,0.39551-2.16992,0.78027
		c-0.58203,0.38477-2.02344,1.57129-4.32422,3.56055L136.81055,77.771l14.18066,16.29443
		c1.82227,2.10645,3.12695,3.47656,3.91406,4.11035c0.78516,0.63379,1.69141,1.06348,2.7168,1.29004v0.95703h-16.7627v-0.95703
		c1.25391-0.29395,1.88086-0.74512,1.88086-1.35547c0-0.22559-0.07422-0.44629-0.22168-0.66016
		c-0.14844-0.21484-0.67871-0.8418-1.59082-1.88086L130.38867,82.99219z"/>
</g>
</svg>
