<?xml version="1.0" encoding="utf-8"?>
<!-- Generator: Adobe Illustrator 28.3.0, SVG Export Plug-In . SVG Version: 6.00 Build 0)  -->
<svg version="1.1" id="Layer_1" xmlns="http://www.w3.org/2000/svg" xmlns:xlink="http://www.w3.org/1999/xlink" x="0px" y="0px"
	 viewBox="0 0 24 24" style="enable-background:new 0 0 24 24;" xml:space="preserve">
<style type="text/css">
	.st0{fill:none;stroke:#2E94B9;stroke-width:1.5;stroke-linecap:round;stroke-linejoin:round;}
</style>
<path class="st0" d="M12,3v17.25 M12,20.25c-1.472,0-2.882,0.265-4.185,0.75 M12,20.25c1.472,0,2.882,0.265,4.185,0.75 M18.75,4.97
	C16.51371,4.65611,14.25821,4.49906,12,4.5c-2.291,0-4.545,0.16-6.75,0.47 M18.75,4.97c1.01,0.143,2.01,0.317,3,0.52 M18.75,4.97
	l2.62,10.726c0.122,0.499-0.106,1.028-0.589,1.202c-0.65156,0.23385-1.33874,0.35295-2.031,0.352
	c-0.69226,0.00095-1.37944-0.11815-2.031-0.352c-0.483-0.174-0.711-0.703-0.59-1.202L18.75,4.971V4.97z M2.25,5.49
	c0.99-0.203,1.99-0.377,3-0.52 M5.25,4.97l2.62,10.726c0.122,0.499-0.106,1.028-0.589,1.202
	c-0.65157,0.23383-1.33874,0.35293-2.031,0.352c-0.69226,0.00093-1.37943-0.11817-2.031-0.352c-0.483-0.174-0.711-0.703-0.59-1.202
	L5.25,4.971V4.97z"/>
</svg>
