<?xml version="1.0" encoding="utf-8"?>
<!-- Generator: Adobe Illustrator 28.3.0, SVG Export Plug-In . SVG Version: 6.00 Build 0)  -->
<svg version="1.1" id="Layer_1" xmlns="http://www.w3.org/2000/svg" xmlns:xlink="http://www.w3.org/1999/xlink" x="0px" y="0px"
	 viewBox="0 0 24 24" style="enable-background:new 0 0 24 24;" xml:space="preserve">
<style type="text/css">
	.st0{fill:#333333;}
</style>
<path class="st0" d="M11.8611,2.39057c0.9884-0.65894,2.2725-0.6726,3.2747-0.03484l4.1552,2.64421h1.7088c0.5523,0,1,0.44772,1,1
	v8.99996c0,0.5523-0.4477,1-1,1h-1.5197c0.0595,0.9473-0.3868,1.9103-1.2846,2.449l-5.0934,3.0561
	c-0.643,0.3857-1.4412,0.3767-2.0707-0.0076c-0.7003,0.6193-1.7783,0.6875-2.56036,0.073l-5.14076-4.0392
	c-0.76641-0.6021-0.96022-1.6309-0.56449-2.4465C2.28248,14.7057,2,14.1254,2,13.5109V6c0-0.55228,0.44772-1,1-1h4.94693
	L11.8611,2.39057z M4.17264,13.6452l0.69203-0.6055c1.23021-1.0765,3.09575-0.9699,4.19534,0.2397l2.70219,2.9724
	c0.8695,0.9565,1.0281,2.3617,0.3957,3.4872l5.0086-3.0051c0.2814-0.1688,0.3832-0.5063,0.2783-0.7906l-4.4271-6.19779
	c-0.2487-0.34815-0.6913-0.49953-1.1011-0.37659L9.43135,10.1145c-1.0571,0.3171-2.20297,0.0282-2.98336-0.75215L6.15522,9.06958
	C5.58721,8.50157,5.44032,7.69318,5.67935,7H4v6.5109L4.17264,13.6452z M14.0621,4.04306
	C13.728,3.83047,13.3,3.83502,12.9705,4.05467l-5.40107,3.6007L7.8622,7.94814c0.26013,0.26013,0.64209,0.35642,0.99446,0.25071
	l2.48524-0.74558c1.2294-0.36882,2.5573,0.08532,3.3033,1.12976l3.8692,5.41687h1.4854V6.99994H19.291
	c-0.3804,0-0.7529-0.10846-1.0738-0.31267L14.0621,4.04306z M6.18168,14.5448l-1.61575,1.4138l5.14076,4.0392l0.70391-1.2319
	c0.215-0.3762,0.1632-0.8481-0.1283-1.1688l-2.70217-2.9724C7.2136,14.2215,6.59175,14.186,6.18168,14.5448z"/>
</svg>
